# xmcd
#
# Track frame offsets: 
#        150
#        10761
#        22708
#        36347
#        49475
#        61265
#        74535
#        88101
#        97812
#        109760
#        122001
#        133626
#        145752
#        159099
#        172980
#        186182
#        199770
#        210345
#        222848
#        234837
#        246968
#        258859
#        269564
#        282087
#        294278
#        306323
#        318982
#        329515
#
# Disc length: 4568 seconds
#
# Revision: 12
# Processed by: cddbd v1.5.2PL0 Copyright (c) Steve Scherf et al.
# Submitted via: ExactAudioCopyFreeDBPlugin 1.0
#
DISCID=8c11d61c
DTITLE=Various Artist - Stax 50th Anniversary Celebration [CD 1)
DYEAR=2007
DGENRE=Soul
TTITLE0=Carla Thomas - Gee Whiz (Look At His Eyes)
TTITLE1=The Mar-Keys - Last Night
TTITLE2=William Bell - You Don't Miss Your Water
TTITLE3=Booker T. and The M.G.'s - Green Onions
TTITLE4=Rufus Thomas - Walking The Dog
TTITLE5=Otis Redding - I've Been Loving You Too Long (To Stop Now)
TTITLE6=The Astors - Candy
TTITLE7=Otis Redding - Respect
TTITLE8=Sam and Dave - You Don't Know Like I Know
TTITLE9=The Mad Lads - I Want Someone
TTITLE10=Sam and Dave - Hold On I'm Comin'
TTITLE11=Carla Thomas - Let Me Be Good To You
TTITLE12=Mable John - Your Good Thing (Is About To End)
TTITLE13=Eddie Floyd - Knock On Wood
TTITLE14=Carla Thomas - B-A-B-Y
TTITLE15=Otis and Carla - Tramp
TTITLE16=The Bar-Kays - Soul Finger
TTITLE17=Albert King - Born Under A Bad Sign
TTITLE18=Sam and Dave - Soul Man
TTITLE19=Otis Redding - (Sittin' On) The Dock Of The Bay
TTITLE20=Ollie and The Nightingales - I Got A Sure Thing
TTITLE21=Booker T. and The M.G.'s - Soul Limbo
TTITLE22=Eddie Floyd - I've Never Found A Girl (To Love Me Like You Do
TTITLE22=)
TTITLE23=Linda Lyndell - What A Man
TTITLE24=William Bell and Judy Clay - Private Number
TTITLE25=Johnnie Taylor - Who's Making Love
TTITLE26=William Bell - I Forgot To Be Your Lover
TTITLE27=Carla Thomas - I Like What You're Doing (To Me)
EXTD=Label: Concord Music Group, Inc. (Stax Records)STX2-30203-2 YEAR:
EXTD=2007
EXTT0=
EXTT1=
EXTT2=
EXTT3=
EXTT4=
EXTT5=
EXTT6=
EXTT7=
EXTT8=
EXTT9=
EXTT10=
EXTT11=
EXTT12=
EXTT13=
EXTT14=
EXTT15=
EXTT16=
EXTT17=
EXTT18=
EXTT19=
EXTT20=
EXTT21=
EXTT22=
EXTT23=
EXTT24=
EXTT25=
EXTT26=
EXTT27=
PLAYORDER=
